<?xml version="1.0" encoding="utf-8"?><svg viewBox="0 0 47 47" xmlns="http://www.w3.org/2000/svg" xmlns:xlink="http://www.w3.org/1999/xlink"><style>:root>svg{display:none}:root>svg:target{display:block}</style><svg fill="none" viewBox="0 0 40 40" id="Vk" xmlns="http://www.w3.org/2000/svg"><path d="M20.145 28.804h1.972s.596-.066.9-.394c.28-.301.27-.866.27-.866s-.04-2.647 1.19-3.037c1.21-.383 2.765 2.558 4.413 3.69 1.246.856 2.193.669 2.193.669l4.407-.062s2.306-.143 1.213-1.955c-.089-.149-.637-1.341-3.277-3.791-2.764-2.566-2.393-2.15.936-6.586 2.027-2.702 2.838-4.352 2.584-5.057-.241-.673-1.732-.495-1.732-.495l-4.958.029s-.367-.05-.642.113c-.266.161-.437.532-.437.532s-.786 2.092-1.834 3.87c-2.209 3.751-3.093 3.95-3.454 3.716-.84-.542-.63-2.182-.63-3.345 0-3.637.551-5.152-1.074-5.544-.54-.13-.936-.217-2.316-.231-1.77-.019-3.27.006-4.117.42-.565.277-1 .893-.734.929.328.043 1.07.2 1.464.736.51.69.491 2.246.491 2.246s.293 4.28-.683 4.812c-.67.365-1.588-.38-3.557-3.785-1.009-1.743-1.772-3.671-1.772-3.671s-.146-.359-.409-.55c-.317-.234-.763-.308-.763-.308l-4.714.029s-.708.02-.968.328c-.23.274-.018.84-.018.84s3.692 8.635 7.87 12.989c3.834 3.99 8.186 3.729 8.186 3.729z" fill="#008FD5"/></svg><svg fill="none" viewBox="0 0 19 16" id="check-mark" xmlns="http://www.w3.org/2000/svg"><path d="m1.71 6.517 6.602 8.157c.194.24.564.22.731-.037l8.509-13.058" stroke="#fff" stroke-width="2.263" stroke-linecap="round"/></svg><svg fill="none" viewBox="0 0 13 22" id="form-btn" xmlns="http://www.w3.org/2000/svg"><path d="m1 21 10-10L1 1" stroke="#fff" stroke-width="1.5"/></svg><svg fill="none" viewBox="0 0 37 37" id="form-phone" xmlns="http://www.w3.org/2000/svg"><g clip-path="url(#ca)"><path d="M26.825 33.917A23.773 23.773 0 0 1 3.083 10.175a7.092 7.092 0 0 1 7.092-7.092c.398-.003.796.033 1.187.108.378.056.75.15 1.11.278a1.541 1.541 0 0 1 1.002 1.156l2.112 9.25a1.542 1.542 0 0 1-.4 1.418c-.201.216-.216.232-2.113 1.218a15.278 15.278 0 0 0 7.508 7.539c1.002-1.912 1.018-1.927 1.233-2.128a1.541 1.541 0 0 1 1.419-.4l9.25 2.112a1.541 1.541 0 0 1 1.11 1.002c.13.366.228.742.293 1.125.062.388.093.78.092 1.172a7.092 7.092 0 0 1-7.153 6.984z" fill="#008FD5"/></g><defs><clipPath id="ca"><path fill="#fff" d="M0 0h37v37H0z"/></clipPath></defs></svg><svg fill="none" viewBox="0 0 22 13" id="form-select-arrow" xmlns="http://www.w3.org/2000/svg"><path d="m1 1 10 10L21 1" stroke="#A1A1A1" stroke-width="1.5"/></svg><svg fill="none" viewBox="0 0 32 32" id="form-sms" xmlns="http://www.w3.org/2000/svg"><path fill-rule="evenodd" clip-rule="evenodd" d="M3.2 0h25.6C30.56 0 32 1.44 32 3.2v19.2c0 1.76-1.44 3.2-3.2 3.2H6.4L0 32 .016 3.2C.016 1.44 1.44 0 3.2 0zm6.14 10.707c.303.2.475.479.518.838h.852a1.698 1.698 0 0 0-.34-.983 2.162 2.162 0 0 0-.867-.682 2.954 2.954 0 0 0-1.25-.252 3.01 3.01 0 0 0-1.26.256 2.193 2.193 0 0 0-.896.71c-.22.303-.33.658-.33 1.065 0 .49.166.887.497 1.19.332.303.781.536 1.35.7l.895.255c.255.071.493.154.713.249.22.094.398.217.533.369.135.151.202.348.202.59 0 .264-.078.496-.234.695-.156.197-.368.35-.636.462a2.377 2.377 0 0 1-.905.163 2.5 2.5 0 0 1-.81-.128 1.499 1.499 0 0 1-.618-.397 1.138 1.138 0 0 1-.277-.682h-.909c.029.398.15.747.366 1.048.218.3.516.535.895.703.381.168.832.252 1.353.252.559 0 1.033-.094 1.424-.28.393-.188.691-.44.895-.757.206-.317.309-.672.309-1.065 0-.341-.07-.629-.21-.863a1.826 1.826 0 0 0-.532-.576 2.916 2.916 0 0 0-.672-.358 6.434 6.434 0 0 0-.632-.206l-.738-.2a5.717 5.717 0 0 1-.444-.138 2.593 2.593 0 0 1-.462-.223 1.228 1.228 0 0 1-.362-.345.887.887 0 0 1-.139-.5c0-.233.067-.44.2-.622a1.35 1.35 0 0 1 .56-.43c.242-.104.523-.156.845-.156.44 0 .812.1 1.115.298zm3.969-.98h-1.051V17h.824v-5.526h.07L15.425 17h.796l2.272-5.526h.072V17h.823V9.727h-1.05l-2.472 6.037h-.086l-2.47-6.037zm11.304.98c.303.2.476.479.518.838h.853a1.699 1.699 0 0 0-.341-.983 2.162 2.162 0 0 0-.867-.682 2.954 2.954 0 0 0-1.25-.252 3.01 3.01 0 0 0-1.26.256 2.194 2.194 0 0 0-.895.71c-.22.303-.33.658-.33 1.065 0 .49.165.887.497 1.19.331.303.78.536 1.35.7l.894.255c.256.071.494.154.714.249.22.094.398.217.532.369.135.151.203.348.203.59 0 .264-.078.496-.235.695-.156.197-.368.35-.635.462-.268.109-.57.163-.906.163a2.5 2.5 0 0 1-.81-.128 1.499 1.499 0 0 1-.617-.397 1.138 1.138 0 0 1-.277-.682h-.91c.029.398.15.747.366 1.048.218.3.517.535.895.703.381.168.832.252 1.353.252.559 0 1.034-.094 1.424-.28.393-.188.692-.44.895-.757.206-.317.31-.672.31-1.065 0-.341-.07-.629-.21-.863a1.826 1.826 0 0 0-.533-.576 2.916 2.916 0 0 0-.671-.358 6.434 6.434 0 0 0-.632-.206l-.739-.2a5.727 5.727 0 0 1-.444-.138 2.593 2.593 0 0 1-.462-.223 1.228 1.228 0 0 1-.362-.345.888.888 0 0 1-.138-.5c0-.233.066-.44.199-.622a1.35 1.35 0 0 1 .56-.43c.242-.104.524-.156.846-.156.44 0 .812.1 1.115.298z" fill="#008FD5"/></svg><svg fill="none" viewBox="0 0 41 34" id="form-telegram" xmlns="http://www.w3.org/2000/svg"><path d="m16.088 22.408-.678 9.493c.97 0 1.39-.415 1.894-.913l4.55-4.326 9.427 6.87c1.729.958 2.947.453 3.413-1.583l6.188-28.853.001-.001C41.432.55 39.96-.443 38.275.18L1.903 14.038c-2.482.958-2.444 2.335-.422 2.96l9.3 2.877L32.378 6.427c1.017-.67 1.94-.3 1.18.37L16.09 22.408z" fill="#039BE5"/></svg><svg fill="none" viewBox="0 0 47 47" id="form-whatsapp" xmlns="http://www.w3.org/2000/svg"><g clip-path="url(#ga)"><path d="M40.15 6.83C35.734 2.428 29.859.003 23.599 0 10.7 0 .203 10.447.198 23.288A23.168 23.168 0 0 0 3.32 34.932L.001 47l12.405-3.238a23.466 23.466 0 0 0 11.182 2.835h.01c12.897 0 23.395-10.45 23.4-23.29.003-6.223-2.43-12.075-6.847-16.477zM23.599 42.663h-.007a19.492 19.492 0 0 1-9.9-2.698l-.71-.42-7.361 1.922 1.965-7.143-.463-.732A19.244 19.244 0 0 1 4.15 23.29c.004-10.673 8.728-19.356 19.457-19.356 5.195.002 10.078 2.018 13.75 5.677 3.672 3.658 5.693 8.522 5.691 13.695-.004 10.673-8.729 19.357-19.449 19.357z" fill="#E0E0E0"/><path d="m1.076 45.66 3.168-11.516a22.108 22.108 0 0 1-2.981-11.111C1.268 10.779 11.285.809 23.593.809c5.974.003 11.58 2.317 15.796 6.518 4.217 4.2 6.537 9.785 6.535 15.723-.005 12.255-10.023 22.225-22.33 22.225h-.01a22.403 22.403 0 0 1-10.67-2.704L1.076 45.66z" fill="url(#gb)"/><path fill-rule="evenodd" clip-rule="evenodd" d="M17.816 13.401c-.433-.958-.889-.977-1.3-.994-.338-.014-.723-.013-1.108-.013-.386 0-1.012.144-1.542.72-.53.575-2.023 1.967-2.023 4.798 0 2.832 2.072 5.568 2.36 5.952.29.383 3.999 6.379 9.873 8.685 4.883 1.917 5.876 1.536 6.936 1.44 1.06-.096 3.42-1.392 3.901-2.735.482-1.344.482-2.495.338-2.736-.145-.24-.53-.384-1.108-.672-.578-.287-3.42-1.68-3.95-1.872-.53-.191-.915-.287-1.3.289-.386.575-1.493 1.871-1.83 2.255-.337.384-.674.432-1.252.145-.578-.29-2.44-.896-4.648-2.856-1.718-1.525-2.878-3.41-3.216-3.985-.337-.576-.036-.887.254-1.174.26-.258.578-.672.867-1.008.289-.336.385-.576.578-.96.192-.384.096-.72-.049-1.008-.144-.287-1.267-3.133-1.781-4.27z" fill="#fff"/><path d="M39.96 6.756C35.592 2.405 29.785.007 23.597.004 10.847.004.471 10.332.465 23.025a22.902 22.902 0 0 0 3.088 11.51L.27 46.465l12.263-3.201a23.197 23.197 0 0 0 11.053 2.802h.01c12.748 0 23.126-10.329 23.132-23.022.002-6.152-2.402-11.936-6.77-16.288zM23.597 42.178h-.007a19.268 19.268 0 0 1-9.786-2.668l-.702-.414-7.277 1.9 1.943-7.062-.458-.724a19.022 19.022 0 0 1-2.94-10.183C4.376 12.477 13 3.893 23.606 3.893a19.144 19.144 0 0 1 13.592 5.612 18.976 18.976 0 0 1 5.626 13.537c-.005 10.551-8.63 19.136-19.226 19.136z" fill="#fff"/></g><defs><linearGradient id="gb" x1="23.5" y1="45.661" x2="23.5" y2=".809" gradientUnits="userSpaceOnUse"><stop stop-color="#20B038"/><stop offset="1" stop-color="#60D66A"/></linearGradient><clipPath id="ga"><path fill="#fff" d="M0 0h47v47H0z"/></clipPath></defs></svg><svg fill="none" viewBox="0 0 40 40" id="instagram" xmlns="http://www.w3.org/2000/svg"><path d="M28.9 9.1a2 2 0 1 0 0 4 2 2 0 0 0 0-4zm7.667 4.033a12.648 12.648 0 0 0-.767-4.05 8.233 8.233 0 0 0-1.933-2.95 7.834 7.834 0 0 0-2.95-1.916 12.167 12.167 0 0 0-4.05-.784c-1.767-.1-2.334-.1-6.867-.1-4.533 0-5.1 0-6.867.1a12.167 12.167 0 0 0-4.05.784 7.967 7.967 0 0 0-2.95 1.916 7.833 7.833 0 0 0-1.916 2.95 12.167 12.167 0 0 0-.784 4.05c-.1 1.767-.1 2.334-.1 6.867 0 4.533 0 5.1.1 6.867.029 1.384.294 2.754.784 4.05a7.834 7.834 0 0 0 1.916 2.95 7.966 7.966 0 0 0 2.95 1.916 12.17 12.17 0 0 0 4.05.784c1.767.1 2.334.1 6.867.1 4.533 0 5.1 0 6.867-.1a12.166 12.166 0 0 0 4.05-.784 7.833 7.833 0 0 0 2.95-1.916 8.084 8.084 0 0 0 1.933-2.95c.475-1.3.734-2.668.767-4.05 0-1.767.1-2.334.1-6.867 0-4.533 0-5.1-.1-6.867zm-3 13.534a9.353 9.353 0 0 1-.567 3.1 5.099 5.099 0 0 1-1.25 1.916 5.303 5.303 0 0 1-1.917 1.25 9.348 9.348 0 0 1-3.1.567c-1.666.083-2.283.1-6.666.1-4.384 0-5 0-6.667-.1a9.55 9.55 0 0 1-3.233-.5 5.45 5.45 0 0 1-1.834-1.25A5 5 0 0 1 7.1 29.833a9.233 9.233 0 0 1-.667-3.166c0-1.667-.1-2.284-.1-6.667s0-5 .1-6.667a9.233 9.233 0 0 1 .584-3.166 5 5 0 0 1 1.316-1.834A5.233 5.233 0 0 1 10.167 7a9.55 9.55 0 0 1 3.166-.567c1.667 0 2.284-.1 6.667-.1s5 0 6.667.1a9.35 9.35 0 0 1 3.1.567 5.1 5.1 0 0 1 1.983 1.333A5.099 5.099 0 0 1 33 10.167a9.35 9.35 0 0 1 .567 3.166c.083 1.667.1 2.284.1 6.667s-.017 5-.1 6.667zM20 11.45A8.551 8.551 0 1 0 28.567 20 8.534 8.534 0 0 0 20 11.45zm0 14.1a5.55 5.55 0 1 1 0-11.1 5.55 5.55 0 0 1 0 11.1z" fill="#008FD5"/></svg><svg fill="none" viewBox="0 0 36 36" id="main-timer" xmlns="http://www.w3.org/2000/svg"><path d="M18 12.414v-8.69c7.832 0 14.276 6.444 14.276 14.276S25.832 32.276 18 32.276 3.724 25.832 3.724 18A14.28 14.28 0 0 1 7.905 7.905" stroke="#5DBFF9" stroke-width="2" stroke-miterlimit="10"/><path d="M10.915 12.67a1.241 1.241 0 0 1 1.756-1.755l7.084 5.33a2.482 2.482 0 1 1-3.51 3.51l-5.33-7.084z" fill="#5DBFF9"/></svg><svg fill="none" viewBox="0 0 40 40" id="ok" xmlns="http://www.w3.org/2000/svg"><path fill-rule="evenodd" clip-rule="evenodd" d="M5 20c0-8.284 6.716-15 15-15 8.284 0 15 6.716 15 15 0 8.284-6.716 15-15 15-8.284 0-15-6.716-15-15zm14.99.24c2.212 0 4.01-1.735 4.01-3.869 0-2.135-1.798-3.871-4.01-3.871-2.212 0-4.01 1.736-4.01 3.871 0 2.134 1.798 3.87 4.01 3.87zm1.633 3.16a7.666 7.666 0 0 0 2.328-.93 1.111 1.111 0 0 0 .368-1.564 1.199 1.199 0 0 0-1.62-.357 5.247 5.247 0 0 1-5.399 0 1.198 1.198 0 0 0-1.62.357 1.11 1.11 0 0 0 .369 1.563 7.64 7.64 0 0 0 2.328.931l-2.242 2.164a1.107 1.107 0 0 0 0 1.604c.23.221.53.332.831.332.301 0 .602-.11.831-.332L20 25.04l2.204 2.127a1.204 1.204 0 0 0 1.66 0c.46-.443.46-1.161 0-1.604L21.622 23.4z" fill="#008FD5"/><path fill-rule="evenodd" clip-rule="evenodd" d="M19.99 14.769c.916 0 1.66.718 1.66 1.602 0 .883-.744 1.602-1.66 1.602-.915 0-1.66-.719-1.66-1.602 0-.884.745-1.602 1.66-1.602z" fill="#008FD5"/></svg><svg fill="none" viewBox="0 0 40 40" id="tiktok" xmlns="http://www.w3.org/2000/svg"><path d="M32 18.067v-4.734c-2.217 0-3.908-.591-5-1.741a7.417 7.417 0 0 1-1.775-4.7V6.55l-4.475-.108v19.225a4.167 4.167 0 1 1-2.7-4.675v-4.584a8.633 8.633 0 1 0 7.15 7.458v-7.624a12.066 12.066 0 0 0 6.8 1.825z" fill="#008FD5"/></svg></svg>