<svg width="32" height="32" viewBox="0 0 32 32" fill="none" xmlns="http://www.w3.org/2000/svg">
<path fill-rule="evenodd" clip-rule="evenodd" d="M3.2 0H28.8C30.56 0 32 1.44 32 3.2V22.4C32 24.16 30.56 25.6 28.8 25.6H6.39999L0 32L0.0159988 3.2C0.0159988 1.44 1.44 0 3.2 0ZM9.33949 10.7074C9.64252 10.9062 9.81534 11.1856 9.85796 11.5455H10.7102C10.6984 11.1785 10.5847 10.8506 10.3693 10.5618C10.1562 10.273 9.86743 10.0457 9.50284 9.87997C9.13826 9.71188 8.72159 9.62784 8.25284 9.62784C7.78882 9.62784 7.36861 9.71307 6.99219 9.88352C6.61813 10.0516 6.31984 10.2884 6.09731 10.5938C5.87714 10.8968 5.76704 11.2519 5.76704 11.6591C5.76704 12.1491 5.93277 12.5457 6.26421 12.8487C6.59564 13.1518 7.04546 13.3849 7.61363 13.5483L8.50853 13.804C8.76421 13.875 9.00214 13.9579 9.22231 14.0526C9.44247 14.1473 9.62003 14.2704 9.75497 14.4219C9.88991 14.5734 9.95738 14.7699 9.95738 15.0114C9.95738 15.2765 9.87926 15.5085 9.72301 15.7074C9.56676 15.9039 9.35487 16.0578 9.08736 16.169C8.81984 16.2779 8.51799 16.3324 8.18182 16.3324C7.89299 16.3324 7.62311 16.2898 7.37216 16.2045C7.12358 16.117 6.91762 15.9844 6.75426 15.8068C6.59328 15.6269 6.50095 15.3996 6.47728 15.125H5.56818C5.59659 15.5227 5.71851 15.8719 5.93394 16.1726C6.15175 16.4733 6.45004 16.7076 6.82884 16.8757C7.20999 17.0438 7.66098 17.1278 8.18182 17.1278C8.74052 17.1278 9.21519 17.0343 9.60582 16.8473C9.99881 16.6603 10.2971 16.4081 10.5007 16.0909C10.7067 15.7737 10.8097 15.4186 10.8097 15.0256C10.8097 14.6847 10.7398 14.397 10.6001 14.1626C10.4605 13.9283 10.2829 13.7365 10.0675 13.5874C9.8544 13.4358 9.63068 13.3163 9.3963 13.2287C9.16431 13.1411 8.9536 13.0724 8.76421 13.0227L8.02557 12.8239C7.89062 12.7884 7.74266 12.7422 7.58168 12.6854C7.42068 12.6262 7.26682 12.5516 7.12003 12.4616C6.97325 12.3693 6.85251 12.2545 6.75781 12.1172C6.66548 11.9775 6.61932 11.8106 6.61932 11.6165C6.61932 11.3845 6.68561 11.1773 6.81818 10.995C6.95312 10.8127 7.14015 10.6695 7.37926 10.5653C7.62074 10.4612 7.90247 10.4091 8.22443 10.4091C8.66478 10.4091 9.03645 10.5085 9.33949 10.7074ZM13.3088 9.72727H12.2576V17H13.0815V11.4744H13.1525L15.4252 17H16.2207L18.4934 11.4744H18.5645V17H19.3883V9.72727H18.3372L15.8656 15.7642H15.7804L13.3088 9.72727ZM24.6129 10.7074C24.916 10.9062 25.0888 11.1856 25.1314 11.5455H25.9837C25.9718 11.1785 25.8582 10.8506 25.6428 10.5618C25.4297 10.273 25.1409 10.0457 24.7763 9.87997C24.4117 9.71188 23.995 9.62784 23.5263 9.62784C23.0623 9.62784 22.642 9.71307 22.2656 9.88352C21.8916 10.0516 21.5933 10.2884 21.3707 10.5938C21.1506 10.8968 21.0405 11.2519 21.0405 11.6591C21.0405 12.1491 21.2062 12.5457 21.5376 12.8487C21.8691 13.1518 22.3189 13.3849 22.8871 13.5483L23.782 13.804C24.0376 13.875 24.2756 13.9579 24.4957 14.0526C24.7159 14.1473 24.8935 14.2704 25.0284 14.4219C25.1633 14.5734 25.2308 14.7699 25.2308 15.0114C25.2308 15.2765 25.1527 15.5085 24.9964 15.7074C24.8402 15.9039 24.6283 16.0578 24.3608 16.169C24.0933 16.2779 23.7914 16.3324 23.4553 16.3324C23.1664 16.3324 22.8965 16.2898 22.6456 16.2045C22.397 16.117 22.1911 15.9844 22.0277 15.8068C21.8667 15.6269 21.7744 15.3996 21.7507 15.125H20.8416C20.87 15.5227 20.9919 15.8719 21.2074 16.1726C21.4252 16.4733 21.7235 16.7076 22.1023 16.8757C22.4834 17.0438 22.9344 17.1278 23.4553 17.1278C24.014 17.1278 24.4886 17.0343 24.8793 16.8473C25.2722 16.6603 25.5706 16.4081 25.7742 16.0909C25.9801 15.7737 26.0831 15.4186 26.0831 15.0256C26.0831 14.6847 26.0133 14.397 25.8736 14.1626C25.7339 13.9283 25.5564 13.7365 25.3409 13.5874C25.1278 13.4358 24.9041 13.3163 24.6697 13.2287C24.4377 13.1411 24.227 13.0724 24.0376 13.0227L23.299 12.8239C23.1641 12.7884 23.0161 12.7422 22.8551 12.6854C22.6941 12.6262 22.5403 12.5516 22.3935 12.4616C22.2467 12.3693 22.1259 12.2545 22.0312 12.1172C21.9389 11.9775 21.8928 11.8106 21.8928 11.6165C21.8928 11.3845 21.959 11.1773 22.0916 10.995C22.2266 10.8127 22.4136 10.6695 22.6527 10.5653C22.8942 10.4612 23.1759 10.4091 23.4979 10.4091C23.9382 10.4091 24.3099 10.5085 24.6129 10.7074Z" fill="#008FD5"/>
</svg>
