<svg width="37" height="37" viewBox="0 0 37 37" fill="none" xmlns="http://www.w3.org/2000/svg">
<g id="Phone" clip-path="url(#clip0_763_1772)">
<g id="Layer 2">
<g id="phone">
<path id="Vector" d="M26.8249 33.9167C20.5307 33.9085 14.4967 31.4045 10.046 26.9539C5.59538 22.5032 3.09141 16.4692 3.08325 10.175C3.08325 8.29418 3.83041 6.49038 5.16035 5.16044C6.4903 3.83049 8.29409 3.08334 10.1749 3.08334C10.5732 3.0803 10.9708 3.11645 11.362 3.19125C11.7402 3.24722 12.112 3.34016 12.472 3.46875C12.7252 3.5576 12.9509 3.711 13.1266 3.91379C13.3024 4.11658 13.4221 4.36173 13.4741 4.625L15.5862 13.875C15.6431 14.1261 15.6362 14.3874 15.5662 14.6352C15.4962 14.8829 15.3653 15.1092 15.1853 15.2933C14.9849 15.5092 14.9695 15.5246 13.0733 16.5113C14.5918 19.8426 17.2561 22.5178 20.5812 24.05C21.5833 22.1383 21.5987 22.1229 21.8145 21.9225C21.9986 21.7426 22.2249 21.6116 22.4727 21.5416C22.7204 21.4716 22.9818 21.4647 23.2328 21.5217L32.4828 23.6338C32.7377 23.6929 32.9733 23.8159 33.1675 23.9912C33.3617 24.1665 33.508 24.3883 33.5928 24.6358C33.723 25.0018 33.821 25.3783 33.8858 25.7613C33.9478 26.1487 33.9787 26.5405 33.9783 26.9329C33.9498 28.8057 33.1817 30.5912 31.8415 31.8996C30.5013 33.2081 28.6978 33.9332 26.8249 33.9167Z" fill="#008FD5"/>
</g>
</g>
</g>
<defs>
<clipPath id="clip0_763_1772">
<rect width="37" height="37" fill="white"/>
</clipPath>
</defs>
</svg>
