<svg width="47" height="47" viewBox="0 0 47 47" fill="none" xmlns="http://www.w3.org/2000/svg">
<g id="Whatsapp" clip-path="url(#clip0_763_1765)">
<path id="Vector" d="M40.1509 6.83007C35.7327 2.4282 29.8577 0.00268568 23.5983 0C10.6998 0 0.203087 10.4472 0.197923 23.2883C0.196421 27.393 1.27367 31.3998 3.32122 34.9317L0.00146484 47L12.4063 43.7616C15.824 45.6173 19.6722 46.5952 23.5882 46.5968H23.5982H23.5983C36.4946 46.5968 46.9929 36.1477 46.9984 23.3072C47.0006 17.0838 44.5686 11.2322 40.1509 6.83007ZM23.5983 42.6633H23.5907C20.1001 42.6614 16.6772 41.7284 13.6915 39.9646L12.981 39.5452L5.61973 41.4668L7.58508 34.3238L7.12214 33.5915C5.17509 30.5092 4.14721 26.9473 4.14868 23.2898C4.15295 12.6167 12.8774 3.93364 23.6056 3.93364C28.8008 3.93579 33.6836 5.95189 37.356 9.61059C41.0281 13.2693 43.0489 18.1329 43.0473 23.3056C43.0428 33.979 34.318 42.6633 23.5983 42.6633Z" fill="#E0E0E0"/>
<path id="Vector_2" d="M1.07568 45.6609L4.2438 34.144C2.28927 30.7734 1.26143 26.9493 1.26266 23.0328C1.26779 10.7786 11.2851 0.808853 23.5933 0.808853C29.5671 0.811539 35.1738 3.12613 39.3893 7.32704C43.6057 11.5279 45.9264 17.1118 45.9239 23.0502C45.9188 35.3048 35.9008 45.2754 23.5942 45.2754C23.5933 45.2754 23.5948 45.2754 23.5942 45.2754H23.5843C19.8471 45.2742 16.175 44.3402 12.9136 42.5706L1.07568 45.6609Z" fill="url(#paint0_linear_763_1765)"/>
<path id="Vector_3" fill-rule="evenodd" clip-rule="evenodd" d="M17.8158 13.4013C17.3829 12.443 16.9271 12.4238 16.5152 12.4071C16.1783 12.3927 15.7926 12.3936 15.4076 12.3936C15.0222 12.3936 14.396 12.5377 13.8664 13.1136C13.3365 13.6894 11.8433 15.0814 11.8433 17.9124C11.8433 20.7438 13.9146 23.4795 14.2033 23.8638C14.4923 24.2474 18.2018 30.2429 24.0765 32.5494C28.9588 34.4662 29.9524 34.0849 31.0121 33.989C32.0719 33.8931 34.4316 32.5973 34.9133 31.2536C35.395 29.9101 35.395 28.7585 35.2505 28.5178C35.106 28.278 34.7206 28.1341 34.1426 27.8464C33.5645 27.5586 30.7231 26.1663 30.1932 25.9745C29.6633 25.7827 29.278 25.6868 28.8926 26.2629C28.5073 26.8384 27.4002 28.1341 27.063 28.5178C26.7258 28.9024 26.3886 28.9503 25.8106 28.6626C25.2325 28.3739 23.371 27.7669 21.1628 25.8066C19.4446 24.2815 18.2845 22.3979 17.9474 21.8219C17.6102 21.2464 17.9112 20.9346 18.2012 20.6478C18.4607 20.39 18.7792 19.976 19.0682 19.64C19.3566 19.304 19.453 19.0642 19.6457 18.6805C19.8383 18.2963 19.742 17.9603 19.5975 17.6725C19.453 17.3848 18.3297 14.5391 17.8158 13.4013Z" fill="white"/>
<path id="Vector_4" d="M39.9598 6.75606C35.5922 2.40472 29.7847 0.00710332 23.5972 0.00437927C10.8468 0.00437927 0.47055 10.3317 0.465425 23.0254C0.463922 27.083 1.5288 31.0438 3.55285 34.5352L0.27124 46.4648L12.5336 43.2636C15.9122 45.098 19.7162 46.0647 23.5873 46.0662H23.5971H23.5972C36.3455 46.0662 46.7233 35.7371 46.7287 23.0439C46.7308 16.8921 44.3268 11.1077 39.9598 6.75606ZM23.5972 42.1779H23.5897C20.1392 42.1761 16.7555 41.2538 13.8041 39.5103L13.1017 39.0957L5.82499 40.9952L7.76777 33.9342L7.31015 33.2103C5.38545 30.1634 4.36936 26.6424 4.37086 23.0269C4.37506 12.4763 12.9994 3.89294 23.6045 3.89294C28.74 3.89505 33.5667 5.88801 37.197 9.5047C40.8269 13.1214 42.8245 17.9292 42.823 23.0425C42.8184 33.5934 34.1938 42.1779 23.5972 42.1779Z" fill="white"/>
</g>
<defs>
<linearGradient id="paint0_linear_763_1765" x1="23.4998" y1="45.6609" x2="23.4998" y2="0.808928" gradientUnits="userSpaceOnUse">
<stop stop-color="#20B038"/>
<stop offset="1" stop-color="#60D66A"/>
</linearGradient>
<clipPath id="clip0_763_1765">
<rect width="47" height="47" fill="white"/>
</clipPath>
</defs>
</svg>
