<svg width="36" height="36" viewBox="0 0 36 36" fill="none" xmlns="http://www.w3.org/2000/svg">
<g id="Timer">
<path id="Vector" d="M18 12.4138V3.72412C25.8318 3.72412 32.2758 10.1681 32.2758 18C32.2758 25.8318 25.8318 32.2758 18 32.2758C10.1681 32.2758 3.72412 25.8318 3.72412 18C3.72412 14.215 5.22867 10.5815 7.90509 7.90509" stroke="#5DBFF9" stroke-width="2" stroke-miterlimit="10"/>
<path id="Vector_2" d="M10.9155 12.6707C10.6828 12.438 10.552 12.1223 10.552 11.7931C10.552 11.4639 10.6828 11.1482 10.9155 10.9154C11.1483 10.6826 11.464 10.5519 11.7932 10.5519C12.1224 10.5519 12.4381 10.6826 12.6708 10.9154L19.7554 16.2447C19.9925 16.4737 20.1817 16.7476 20.3118 17.0506C20.4419 17.3535 20.5104 17.6792 20.5133 18.0089C20.5161 18.3386 20.4533 18.6655 20.3285 18.9706C20.2036 19.2757 20.0193 19.5529 19.7862 19.7861C19.5531 20.0192 19.2759 20.2035 18.9707 20.3284C18.6656 20.4532 18.3387 20.516 18.009 20.5131C17.6794 20.5103 17.3536 20.4418 17.0507 20.3117C16.7478 20.1816 16.4738 19.9924 16.2448 19.7553L10.9155 12.6707Z" fill="#5DBFF9"/>
</g>
</svg>
