<svg width="40" height="40" viewBox="0 0 40 40" fill="none" xmlns="http://www.w3.org/2000/svg">
<path fill-rule="evenodd" clip-rule="evenodd" d="M5 20C5 11.7158 11.7158 5 20 5C28.2843 5 35 11.7158 35 20C35 28.2843 28.2843 35 20 35C11.7158 35 5 28.2843 5 20ZM19.9898 20.2408C22.2017 20.2408 23.9998 18.5049 23.9998 16.371C23.9998 14.2363 22.2017 12.5 19.9898 12.5C17.7784 12.5 15.9799 14.2363 15.9799 16.371C15.9799 18.5049 17.7784 20.2408 19.9898 20.2408ZM21.6225 23.4002C22.4388 23.2207 23.2259 22.9089 23.951 22.4694C24.4997 22.1354 24.665 21.4352 24.3193 20.9056C23.9738 20.3747 23.2489 20.215 22.6993 20.5489C21.0567 21.546 18.942 21.5457 17.3004 20.5489C16.7507 20.215 16.0256 20.3747 15.6809 20.9056C15.3351 21.4357 15.4999 22.1354 16.0487 22.4694C16.7738 22.9085 17.5609 23.2207 18.3772 23.4002L16.1353 25.5643C15.677 26.0071 15.677 26.7251 16.1357 27.1679C16.3654 27.3891 16.6657 27.4998 16.9661 27.4998C17.267 27.4998 17.5679 27.3891 17.7975 27.1679L19.9996 25.0413L22.2036 27.1679C22.6619 27.6107 23.4054 27.6107 23.8641 27.1679C24.3234 26.7251 24.3234 26.0066 23.8641 25.5643L21.6225 23.4002Z" fill="#008FD5"/>
<path fill-rule="evenodd" clip-rule="evenodd" d="M19.9899 14.7686C20.9055 14.7686 21.6502 15.4872 21.6502 16.371C21.6502 17.2541 20.9055 17.9732 19.9899 17.9732C19.075 17.9732 18.3296 17.2541 18.3296 16.371C18.3296 15.4872 19.075 14.7686 19.9899 14.7686Z" fill="#008FD5"/>
</svg>
