<svg width="40" height="40" viewBox="0 0 40 40" fill="none" xmlns="http://www.w3.org/2000/svg">
<path d="M32 18.0667V13.3333C29.7833 13.3333 28.0917 12.7417 27 11.5917C25.8796 10.2792 25.2519 8.61714 25.225 6.89168V6.55001L20.75 6.44168V25.6667C20.5965 26.5055 20.1893 27.277 19.5835 27.877C18.9776 28.4771 18.2022 28.8768 17.362 29.0222C16.5217 29.1677 15.6571 29.0518 14.8848 28.6902C14.1125 28.3287 13.4697 27.7389 13.0433 27.0005C12.6168 26.262 12.4272 25.4105 12.4999 24.5609C12.5727 23.7113 12.9045 22.9045 13.4503 22.2494C13.9962 21.5942 14.7299 21.1224 15.5525 20.8975C16.375 20.6726 17.2467 20.7055 18.05 20.9917V16.4083C17.5817 16.3316 17.1079 16.2926 16.6333 16.2917C14.9258 16.2917 13.2567 16.798 11.8369 17.7467C10.4172 18.6953 9.31061 20.0436 8.65718 21.6212C8.00374 23.1987 7.83277 24.9346 8.16589 26.6093C8.49901 28.284 9.32126 29.8223 10.5286 31.0297C11.736 32.2371 13.2744 33.0593 14.9491 33.3925C16.6238 33.7256 18.3596 33.5546 19.9372 32.9012C21.5147 32.2477 22.863 31.1412 23.8117 29.7214C24.7603 28.3017 25.2667 26.6325 25.2667 24.925C25.2657 24.5712 25.2435 24.2178 25.2 23.8667V16.2417C27.2349 17.5125 29.6023 18.1479 32 18.0667Z" fill="#008FD5"/>
</svg>
