<svg width="40" height="40" viewBox="0 0 40 40" fill="none" xmlns="http://www.w3.org/2000/svg">
<path d="M20.1452 28.8037H22.117C22.117 28.8037 22.713 28.7377 23.0162 28.4098C23.2967 28.1087 23.2864 27.5435 23.2864 27.5435C23.2864 27.5435 23.2472 24.8973 24.4765 24.5075C25.6872 24.1239 27.2423 27.065 28.8902 28.1973C30.136 29.0533 31.0827 28.8656 31.0827 28.8656L35.4902 28.8037C35.4902 28.8037 37.7961 28.6614 36.703 26.8485C36.6143 26.7 36.0657 25.5078 33.4257 23.0576C30.6619 20.4918 31.0332 20.9085 34.362 16.472C36.3895 13.7702 37.2 12.1202 36.9463 11.4148C36.705 10.7424 35.2138 10.9198 35.2138 10.9198L30.2556 10.9487C30.2556 10.9487 29.8885 10.8992 29.6142 11.0621C29.3481 11.223 29.1769 11.5942 29.1769 11.5942C29.1769 11.5942 28.3911 13.6856 27.3433 15.4635C25.1344 19.2152 24.2496 19.4132 23.8887 19.1801C23.0492 18.6377 23.2596 16.998 23.2596 15.8347C23.2596 12.1985 23.8103 10.6826 22.185 10.2907C21.6447 10.1608 21.2487 10.0742 19.8688 10.0597C18.0992 10.0412 16.5998 10.0659 15.7521 10.4805C15.187 10.7568 14.7518 11.3735 15.0178 11.4086C15.3458 11.4519 16.0883 11.6087 16.4822 12.1449C16.9917 12.8358 16.9731 14.391 16.9731 14.391C16.9731 14.391 17.266 18.6707 16.2904 19.2028C15.6201 19.5678 14.7023 18.8233 12.7326 15.4181C11.724 13.6753 10.9609 11.7468 10.9609 11.7468C10.9609 11.7468 10.8145 11.388 10.5525 11.1962C10.2349 10.9631 9.78941 10.8888 9.78941 10.8888L5.07453 10.9177C5.07453 10.9177 4.3671 10.9383 4.10722 11.2457C3.87622 11.52 4.08866 12.0851 4.08866 12.0851C4.08866 12.0851 7.78053 20.7208 11.9592 25.0747C15.7933 29.0657 20.1452 28.8037 20.1452 28.8037Z" fill="#008FD5"/>
</svg>
